HIERARCHY
ROOT Hips
{
	OFFSET 0.000000 0.000000 0.000000
	CHANNELS 6 Xposition Yposition Zposition Xrotation Yrotation Zrotation
	JOINT LeftUpLeg_virtual
	{
		OFFSET 0.000000 0.000000 0.000000
		CHANNELS 3 Xrotation Yrotation Zrotation
		JOINT LeftUpLeg
		{
			OFFSET 13.026900 -6.336304 -1.092800
			CHANNELS 3 Xrotation Yrotation Zrotation
			JOINT LeftLeg
			{
				OFFSET 0.524474 -46.096886 9.782700
				CHANNELS 3 Xrotation Yrotation Zrotation
				JOINT LeftFoot
				{
					OFFSET -0.524474 -53.427422 -12.948200
					CHANNELS 3 Xrotation Yrotation Zrotation
					JOINT LeftToeBase
					{
						OFFSET 0.192200 -14.009700 16.364100
						CHANNELS 3 Xrotation Yrotation Zrotation
						JOINT LeftToe_End
						{
							OFFSET -1.784700 -0.561700 9.474800
							CHANNELS 3 Xrotation Yrotation Zrotation
							End Site
							{
								OFFSET 0 0 0
							}
						}
					}
				}
			}
		}
	}
	JOINT RightUpLeg_virtual
	{
		OFFSET 0.000000 0.000000 0.000000
		CHANNELS 3 Xrotation Yrotation Zrotation
		JOINT RightUpLeg
		{
			OFFSET -12.883000 -6.336304 -1.092800
			CHANNELS 3 Xrotation Yrotation Zrotation
			JOINT RightLeg
			{
				OFFSET -0.524587 -46.096825 9.782800
				CHANNELS 3 Xrotation Yrotation Zrotation
				JOINT RightFoot
				{
					OFFSET 0.524587 -53.427383 -12.948300
					CHANNELS 3 Xrotation Yrotation Zrotation
					JOINT RightToeBase
					{
						OFFSET -0.192200 -14.009700 16.364100
						CHANNELS 3 Xrotation Yrotation Zrotation
						JOINT RightToe_End
						{
							OFFSET 1.784700 -0.561700 9.474800
							CHANNELS 3 Xrotation Yrotation Zrotation
							End Site
							{
								OFFSET 0 0 0
							}
						}
					}
				}
			}
		}
	}
	JOINT Spine_virtual
	{
		OFFSET 0.000000 0.000000 0.000000
		CHANNELS 3 Xrotation Yrotation Zrotation
		JOINT Spine
		{
			OFFSET 0.072000 7.257294 -0.789700
			CHANNELS 3 Xrotation Yrotation Zrotation
			JOINT Spine1
			{
				OFFSET 0.000000 12.508769 -0.658067
				CHANNELS 3 Xrotation Yrotation Zrotation
				JOINT Spine1_split
				{
					OFFSET 0.000000 12.508769 -0.658067
					CHANNELS 3 Xrotation Yrotation Zrotation
					JOINT Spine2
					{
						OFFSET 0.000000 12.508769 -0.658067
						CHANNELS 3 Xrotation Yrotation Zrotation
						JOINT Neck_virtual
						{
							OFFSET 0.000000 0.000000 0.000000
							CHANNELS 3 Xrotation Yrotation Zrotation
							JOINT Neck
							{
								OFFSET 0.000000 14.033295 7.520400
								CHANNELS 3 Xrotation Yrotation Zrotation
								JOINT Head
								{
									OFFSET 0.000000 8.198502 5.703100
									CHANNELS 3 Xrotation Yrotation Zrotation
									JOINT HeadTop_End
									{
										OFFSET 0.000000 17.760803 13.332701
										CHANNELS 3 Xrotation Yrotation Zrotation
										End Site
										{
											OFFSET 0 0 0
										}
									}
								}
							}
						}
						JOINT LeftShoulder_virtual
						{
							OFFSET 0.000000 0.000000 0.000000
							CHANNELS 3 Xrotation Yrotation Zrotation
							JOINT LeftShoulder
							{
								OFFSET 6.292450 5.785301 -0.669000
								CHANNELS 3 Xrotation Yrotation Zrotation
								JOINT LeftShoulder_split
								{
									OFFSET 6.292450 5.785301 -0.669000
									CHANNELS 3 Xrotation Yrotation Zrotation
									JOINT LeftArm
									{
										OFFSET 13.907140 -6.093903 1.965100
										CHANNELS 3 Xrotation Yrotation Zrotation
										JOINT LeftForeArm
										{
											OFFSET 34.140198 0.000000 0.000000
											CHANNELS 3 Xrotation Yrotation Zrotation
											JOINT LeftHand
											{
												OFFSET 40.960209 0.000000 0.000000
												CHANNELS 3 Xrotation Yrotation Zrotation
												End Site
												{
													OFFSET 0 0 0
												}
											}
										}
									}
								}
							}
						}
						JOINT RightShoulder_virtual
						{
							OFFSET 0.000000 0.000000 0.000000
							CHANNELS 3 Xrotation Yrotation Zrotation
							JOINT RightShoulder
							{
								OFFSET -6.292450 5.785301 -0.669000
								CHANNELS 3 Xrotation Yrotation Zrotation
								JOINT RightShoulder_split
								{
									OFFSET -6.292450 5.785301 -0.669000
									CHANNELS 3 Xrotation Yrotation Zrotation
									JOINT RightArm
									{
										OFFSET -13.907140 -6.093903 1.965100
										CHANNELS 3 Xrotation Yrotation Zrotation
										JOINT RightForeArm
										{
											OFFSET -34.140198 0.000000 0.000000
											CHANNELS 3 Xrotation Yrotation Zrotation
											JOINT RightHand
											{
												OFFSET -40.960209 0.000000 0.000000
												CHANNELS 3 Xrotation Yrotation Zrotation
												End Site
												{
													OFFSET 0 0 0
												}
											}
										}
									}
								}
							}
						}
					}
				}
			}
		}
	}
}
MOTION
Frames: 4
Frame Time: 0.03333333
-72.188667 29.077496 -0.867043 0.000000 0.000000 0.000000 -46.582092 6.683615 104.016712 -36.205153 14.013456 -2.301513 66.770748 4.886275 -10.780778 -9.032457 -13.621010 2.588747 -6.240979 -2.820864 4.571384 0.000000 0.000000 0.000000 -56.358794 4.193857 108.010303 -53.920081 -19.460915 -29.529025 116.045433 -0.616286 1.964201 -6.500956 3.296449 15.673368 9.171503 -1.033618 2.752577 0.000000 0.000000 0.000000 -48.462391 4.082804 99.245121 14.382630 -0.985069 -9.747155 17.779541 0.464389 -2.830490 0.132341 1.605818 -0.765600 0.000000 0.000000 0.000000 12.320435 1.179767 -2.433707 43.972690 7.413458 -10.944549 -4.072756 11.990459 -1.497170 0.000000 0.000000 0.000000 15.377665 2.077462 -2.708888 0.364052 -3.375669 -12.815413 0.491732 -12.498585 -0.175246 -56.247926 -7.154749 -21.961322 46.551335 -13.463199 11.288926 0.000000 0.000000 0.000000 16.432752 2.018551 -3.253917 5.268955 21.220527 -10.742329 -9.948474 -7.424794 2.882700 -22.421433 -4.611763 16.165745 22.793627 47.977807 -14.741823 0.000000 0.000000 0.000000 
-77.224503 24.399651 0.379791 0.000000 0.000000 0.000000 -49.821220 -3.111027 110.404052 -29.647457 5.880023 -7.831844 64.882487 7.864666 -8.484303 -10.871991 -7.287222 1.025200 -7.943726 -2.556797 3.635393 0.000000 0.000000 0.000000 -57.986865 -6.040107 113.575548 -53.151569 -15.834011 -32.398562 115.202096 -3.025568 4.085387 -7.690677 0.028112 17.542062 7.085738 -1.346306 3.062092 0.000000 0.000000 0.000000 -52.044812 -4.298696 104.460326 15.197212 -1.848079 -9.709274 17.700394 -0.033469 -1.722742 0.456402 2.709355 -0.374123 0.000000 0.000000 0.000000 11.974548 0.494823 -1.326581 40.508267 4.362607 -8.203427 -4.679038 4.501282 -1.324606 0.000000 0.000000 0.000000 15.065466 1.493643 -1.361927 0.071304 -3.692922 -16.958004 -1.090686 -11.799789 -0.290661 -60.210993 -0.938116 -25.462602 47.915177 -15.934724 13.036558 0.000000 0.000000 0.000000 16.495407 1.385403 -2.123081 5.079525 21.820197 -10.139293 -9.510800 -7.618747 2.697167 -18.938803 -3.259027 14.946249 26.554949 45.339544 -19.048424 0.000000 0.000000 0.000000 
-82.801300 22.317581 1.066204 0.000000 0.000000 0.000000 -52.541377 -11.347874 113.872682 -25.968565 -1.658368 -9.530554 62.269872 10.753106 -6.768680 -6.997128 -0.463022 -2.127208 -8.279286 -2.069460 2.602487 0.000000 0.000000 0.000000 -58.598665 -14.384676 116.160850 -49.105054 -14.145899 -35.746666 110.193102 -5.190761 5.599918 -7.164976 -0.853583 21.347898 3.389846 -1.205125 2.245824 0.000000 0.000000 0.000000 -55.329511 -11.055554 107.364071 16.116636 -2.229998 -8.702882 16.465209 -0.115867 -0.282124 -0.701525 2.799909 0.854671 0.000000 0.000000 0.000000 10.682774 0.269083 0.006617 35.324707 1.109351 -5.330136 -8.225448 -3.968186 -1.231342 0.000000 0.000000 0.000000 13.525350 1.351757 0.318635 -0.240349 -3.644151 -20.007407 -2.333957 -10.890636 -1.572450 -63.461856 10.905076 -25.842924 50.901233 -20.920087 17.964494 0.000000 0.000000 0.000000 15.186429 1.083440 -0.716833 5.140805 22.189172 -9.895100 -10.111666 -7.979083 2.832623 -16.822211 2.150674 12.762201 24.667838 43.250896 -19.024606 0.000000 0.000000 0.000000 
-88.478165 22.494644 0.896496 0.000000 0.000000 0.000000 -55.972881 -17.474957 114.534240 -24.342053 -6.766191 -7.325427 59.286527 13.233486 -5.796411 2.939943 4.839692 -7.152355 -6.801736 -1.493346 1.530404 0.000000 0.000000 0.000000 -60.202933 -20.410033 115.869706 -42.924515 -14.694889 -38.118005 100.173399 -7.432883 6.726915 -5.980240 -0.316740 25.200651 0.929267 -0.652702 0.790838 0.000000 0.000000 0.000000 -58.919234 -16.184468 107.944979 17.380519 -2.190416 -6.591098 14.493663 -0.147640 1.310322 -1.471566 2.124881 1.793625 0.000000 0.000000 0.000000 8.922963 0.192322 1.383028 29.149577 -1.810905 -2.799973 -13.685668 -11.675770 -1.907365 0.000000 0.000000 0.000000 11.304142 1.239439 2.119971 -0.511916 -3.798176 -21.389337 -3.098633 -9.936003 -3.387418 -67.110932 24.425200 -22.592731 56.412199 -26.522818 26.306938 0.000000 0.000000 0.000000 13.019147 0.810333 0.776925 5.404664 21.876970 -10.047736 -10.904609 -9.377478 3.630415 -16.758535 9.153008 10.638505 17.507218 40.381677 -14.834312 0.000000 0.000000 0.000000 
